# xmcd CD database file
#
# Track frame offsets:
#	150
#	14925
#	28276
#	44204
#	55075
#	71326
#	88427
#	101974
#	121026
#	136544
#	148481
#	162115
#	174610
#	193356
#	208352
#	221375
#
# Disc length: 3140 seconds
#
# Revision: 0
# Processed by: cddbd v1.5.2PL0 Copyright (c) Steve Scherf et al.
# Submitted via: CDex 1.70beta2
#
DISCID=060c4210
DTITLE=Various Artist - The Best Of Country and Western Vol.1 [CD 2)
DYEAR=2008
DGENRE=Country
TTITLE0=John-Denver-Take me Home
TTITLE1=Lynn Anderson - Rose Garden
TTITLE2=Brenda Lee - You´re the one that I want
TTITLE3=Roger Miller - King of the Road
TTITLE4=Don Gibson - Green Green Gras of Home
TTITLE5=Lynn Anderson - Blue Bayou
TTITLE6=Billie Joe Spears - Fever
TTITLE7=John Denver - Rocky Mountain High
TTITLE8=Kenny Rogers - For the good times
TTITLE9=Wanda Jackson - Sweet dreams
TTITLE10=Kenny Rogers - Rudy don´t take your lave to town
TTITLE11=Lynn Anderson - Stand by your man
TTITLE12=Bellamay Brothers - If I said you had a beautiful body
TTITLE13=Frankie Lane - Sixteen Tons
TTITLE14=Stu Stevens - Love me tender
TTITLE15=John Denver - Annie´s Song
EXTD=YEAR: 2008
EXTT0=
EXTT1=
EXTT2=
EXTT3=
EXTT4=
EXTT5=
EXTT6=
EXTT7=
EXTT8=
EXTT9=
EXTT10=
EXTT11=
EXTT12=
EXTT13=
EXTT14=
EXTT15=
PLAYORDER=
